<svg width="140" height="140" viewBox="0 0 140 140" fill="none" xmlns="http://www.w3.org/2000/svg">
<g clip-path="url(#clip0_1_42)">
<path d="M122.909 16.7288H17.1198C7.67639 16.7288 0 24.4052 0 33.8486V106.151C0 115.595 7.67639 123.271 17.1198 123.271H122.88C132.324 123.271 140 115.595 140 106.151V33.8775C140.029 24.4341 132.353 16.7288 122.909 16.7288ZM132.208 106.151C132.208 111.279 128.036 115.45 122.909 115.45H17.1198C11.9926 115.45 7.82123 111.279 7.82123 106.151V33.8775C7.82123 28.7503 11.9926 24.579 17.1198 24.579H122.88C128.007 24.579 132.179 28.7503 132.179 33.8775V106.151H132.208Z" fill="white" fill-opacity="0.4"/>
<path d="M88.2929 69.102L122.533 38.3965C124.126 36.9481 124.271 34.4858 122.822 32.8637C121.374 31.2704 118.912 31.1256 117.289 32.574L70.0724 74.9535L60.8607 66.7267C60.8317 66.6977 60.8028 66.6688 60.8028 66.6398C60.6 66.437 60.3972 66.2632 60.1655 66.0894L22.6815 32.545C21.0593 31.0966 18.5971 31.2415 17.1487 32.8637C15.7003 34.4858 15.8452 36.9481 17.4674 38.3965L52.1125 69.3627L17.6122 101.662C16.0479 103.139 15.961 105.601 17.4384 107.194C18.2205 108.005 19.2633 108.44 20.3062 108.44C21.2621 108.44 22.218 108.092 22.9712 107.397L57.9929 74.6348L67.4943 83.1223C68.2474 83.7886 69.1744 84.1072 70.1013 84.1072C71.0283 84.1072 71.9842 83.7596 72.7084 83.0933L82.4705 74.3451L117.289 107.426C118.043 108.15 119.027 108.498 119.983 108.498C121.026 108.498 122.04 108.092 122.822 107.281C124.3 105.717 124.242 103.226 122.677 101.748L88.2929 69.102Z" fill="white" fill-opacity="0.4"/>
</g>
<defs>
<clipPath id="clip0_1_42">
<rect width="140" height="140" fill="white"/>
</clipPath>
</defs>
</svg>
